<svg width="20" height="20" viewBox="0 0 20 20" fill="none" xmlns="http://www.w3.org/2000/svg">
<path d="M9.99935 8.74935L7.49935 6.24935V1.66602H12.4993V6.24935L9.99935 8.74935ZM13.7493 12.4993L11.2493 9.99935L13.7493 7.49935H18.3327V12.4993H13.7493ZM1.66602 12.4993V7.49935H6.24935L8.74935 9.99935L6.24935 12.4993H1.66602ZM7.49935 18.3327V13.7493L9.99935 11.2493L12.4993 13.7493V18.3327H7.49935ZM9.99935 6.37435L10.8327 5.54102V3.33268H9.16602V5.54102L9.99935 6.37435ZM3.33268 10.8327H5.54102L6.37435 9.99935L5.54102 9.16602H3.33268V10.8327ZM9.16602 16.666H10.8327V14.4577L9.99935 13.6243L9.16602 14.4577V16.666ZM14.4577 10.8327H16.666V9.16602H14.4577L13.6243 9.99935L14.4577 10.8327Z" fill="white"/>
</svg>
