<svg width="21" height="20" viewBox="0 0 21 20" fill="none" xmlns="http://www.w3.org/2000/svg">
<g filter="url(#filter0_i_782_24742)">
<path d="M13.2418 8.93332L11.1085 6.79999H8.97513L6.8418 8.93332V11.0667L8.97513 13.2H11.1074L13.2408 11.0667L13.2418 8.93332Z" fill="#FDC700"/>
</g>
<g filter="url(#filter1_i_782_24742)">
<path d="M15.8846 0C16.6262 0 17.3028 0.18632 17.9145 0.558953C18.5448 0.931579 19.0453 1.43463 19.416 2.06808C19.8053 2.68293 20 3.37237 20 4.13627C20 4.13627 20.0573 9.70541 20.0573 13.0133C18.443 13.0133 14.6667 13.0133 14.6667 13.0133L14.6276 5.35099H5.36095L5.4 13.0133H0L9.80377e-06 4.14122C9.80377e-06 3.37732 0.164761 2.68293 0.535514 2.06808C0.906257 1.43463 1.40677 0.931582 2.03702 0.558953C2.6673 0.186318 3.35326 0 4.09476 0H15.8846Z" fill="#FDC700"/>
</g>
<g filter="url(#filter2_i_782_24742)">
<path d="M20.043 14.6637V14.6133H0.0429688V14.6828C0.0429688 15.6443 0.207721 16.5147 0.578473 17.3319C0.949216 18.1492 1.44973 18.7982 2.07998 19.2789C2.71026 19.7596 3.39621 20 4.13772 20H15.9276C16.6691 20 17.3457 19.7596 17.9575 19.2789C18.5877 18.7982 19.0882 18.1492 19.459 17.3319C19.8483 16.5147 20.043 15.6252 20.043 14.6637Z" fill="#FDC700"/>
</g>
<defs>
<filter id="filter0_i_782_24742" x="6.8418" y="6.79999" width="6.40039" height="6.39999" filterUnits="userSpaceOnUse" color-interpolation-filters="sRGB">
<feFlood flood-opacity="0" result="BackgroundImageFix"/>
<feBlend mode="normal" in="SourceGraphic" in2="BackgroundImageFix" result="shape"/>
<feColorMatrix in="SourceAlpha" type="matrix" values="0 0 0 0 0 0 0 0 0 0 0 0 0 0 0 0 0 0 127 0" result="hardAlpha"/>
<feOffset dy="-1"/>
<feComposite in2="hardAlpha" operator="arithmetic" k2="-1" k3="1"/>
<feColorMatrix type="matrix" values="0 0 0 0 0 0 0 0 0 0 0 0 0 0 0 0 0 0 0.25 0"/>
<feBlend mode="normal" in2="shape" result="effect1_innerShadow_782_24742"/>
</filter>
<filter id="filter1_i_782_24742" x="0" y="0" width="20.0576" height="13.0133" filterUnits="userSpaceOnUse" color-interpolation-filters="sRGB">
<feFlood flood-opacity="0" result="BackgroundImageFix"/>
<feBlend mode="normal" in="SourceGraphic" in2="BackgroundImageFix" result="shape"/>
<feColorMatrix in="SourceAlpha" type="matrix" values="0 0 0 0 0 0 0 0 0 0 0 0 0 0 0 0 0 0 127 0" result="hardAlpha"/>
<feOffset dy="-1"/>
<feComposite in2="hardAlpha" operator="arithmetic" k2="-1" k3="1"/>
<feColorMatrix type="matrix" values="0 0 0 0 0 0 0 0 0 0 0 0 0 0 0 0 0 0 0.25 0"/>
<feBlend mode="normal" in2="shape" result="effect1_innerShadow_782_24742"/>
</filter>
<filter id="filter2_i_782_24742" x="0.0429688" y="14.6133" width="20" height="5.38666" filterUnits="userSpaceOnUse" color-interpolation-filters="sRGB">
<feFlood flood-opacity="0" result="BackgroundImageFix"/>
<feBlend mode="normal" in="SourceGraphic" in2="BackgroundImageFix" result="shape"/>
<feColorMatrix in="SourceAlpha" type="matrix" values="0 0 0 0 0 0 0 0 0 0 0 0 0 0 0 0 0 0 127 0" result="hardAlpha"/>
<feOffset dy="-1"/>
<feComposite in2="hardAlpha" operator="arithmetic" k2="-1" k3="1"/>
<feColorMatrix type="matrix" values="0 0 0 0 0 0 0 0 0 0 0 0 0 0 0 0 0 0 0.25 0"/>
<feBlend mode="normal" in2="shape" result="effect1_innerShadow_782_24742"/>
</filter>
</defs>
</svg>
